Simulation
nRows=41
nColumns=15
endheader
time  TH_x TH_y TH_z SC_y  SC_z  SC_x  AC_y  AC_z  AC_x  GH_y  GH_z  GH_yy  EL_x  PS_y
1.55  0.000000  0.000000  0.000000  -32.89129987508938  6.952169310510483  22.64579951956174  52.390213387729176  8.878278265708488  -5.407194112979133  23.164707573787553  55.75798713892531  -19.78906078669555  17.92771660559339  0.000000
1.581  0.000000  0.000000  0.000000  -33.21758363254566  7.252725606300115  23.176593573752655  52.35855133880452  8.976142049445297  -5.1147475399099465  22.95854703210895  56.2485407774431  -19.802285206562498  17.901306418530453  0.000000
1.612  0.000000  0.000000  0.000000  -33.520712907781906  7.512052117389069  23.59445961428072  52.362361372399356  9.063330663315607  -4.8109727039157  22.72683476738664  56.707583212066396  -19.768418843533276  17.886154617062115  0.000000
1.643  0.000000  0.000000  0.000000  -33.79365979291451  7.718642594454925  23.90734825952817  52.39610400715217  9.149669316166781  -4.518771261419622  22.486583278737857  57.11780453336017  -19.7119639875754  17.88808467857315  0.000000
1.674  0.000000  0.000000  0.000000  -34.03583786802469  7.8721154716968025  24.13073361516536  52.44636027755779  9.240507191811838  -4.256120342517445  22.270555077583563  57.452368139170225  -19.658101960722508  17.906445038824188  0.000000
1.705  0.000000  0.000000  0.000000  -34.25376042441542  7.981410151508168  24.28504882205249  52.49933646838902  9.33293423529182  -4.034122626762004  22.11293059552377  57.68400494355053  -19.620151061603586  17.935372090881003  0.000000
1.736  0.000000  0.000000  0.000000  -34.44743206897246  8.054789353923688  24.383807234353455  52.544180501015944  9.418804240234232  -3.862083692999753  22.037241484453443  57.794731101205784  -19.602149315745134  17.968256711648685  0.000000
1.767  0.000000  0.000000  0.000000  -34.60918861634511  8.09682841540499  24.433548268769  52.573620240424596  9.486943458585921  -3.750575087904394  22.05198872839406  57.77956431642616  -19.603387297541815  18.000021100202396  0.000000
1.798  0.000000  0.000000  0.000000  -34.720937534870345  8.107448189061156  24.43089073232164  52.58226266928684  9.526184408471087  -3.711255608883692  22.153911608606023  57.643893630095754  -19.62451229070059  18.027522000790107  0.000000
1.829  0.000000  0.000000  0.000000  -34.76570742846533  8.083862962376276  24.37120585463019  52.5681896841666  9.528209499125257  -3.753475968317958  22.334062375324145  57.396672503466135  -19.67195840087871  18.048742433226625  0.000000
1.8599999999999999  0.000000  0.000000  0.000000  -34.731356102482  8.01959184623556  24.25141827676339  52.53570233404809  9.490015750359184  -3.881339023710562  22.582490501291435  57.0429121847719  -19.76385812453149  18.062795432873184  0.000000
1.891  0.000000  0.000000  0.000000  -34.61868268417326  7.906201848778337  24.07539874381656  52.497505735114295  9.413016273584313  -4.091906052093632  22.888815335958107  56.583153345567695  -19.925776568517843  18.069442728668744  0.000000
1.922  0.000000  0.000000  0.000000  -34.43577027531683  7.736183583480541  23.84614407494494  52.47192448056026  9.2979551535642  -4.375408296894833  23.239650352362727  56.01995967961527  -20.17931156823875  18.06959069815556  0.000000
1.953  0.000000  0.000000  0.000000  -34.19986609094322  7.5090342861472825  23.56289178932794  52.47715337817871  9.140475510831484  -4.714591734946287  23.617298478831383  55.36453848765567  -20.52323474437203  18.066952396057133  0.000000
1.984  0.000000  0.000000  0.000000  -33.928341643507935  7.231631508926853  23.21488990370991  52.52345348688984  8.93338187349876  -5.0873197169667375  24.00125262185733  54.63656809899454  -20.927118164829842  18.07033290134191  0.000000
2.015  0.000000  0.000000  0.000000  -33.639207513449136  6.915291821937792  22.78884888988953  52.61005473843731  8.673547200803005  -5.469071700316988  24.373368933647857  53.8568958010287  -21.34069181703401  18.09127639662543  0.000000
2.046  0.000000  0.000000  0.000000  -33.34340092756243  6.568894028977224  22.273591958164523  52.72762287865816  8.366469159166158  -5.839328113258967  24.72190251081416  53.04012141389568  -21.715791410809715  18.139005993981943  0.000000
2.077  0.000000  0.000000  0.000000  -33.04943400140359  6.19708261199403  21.66776012158116  52.86360823160922  8.024362941882652  -6.183348480491182  25.04355037553352  52.1926338421761  -22.022590740512484  18.21632853378281  0.000000
2.108  0.000000  0.000000  0.000000  -32.76013192315325  5.80126649804347  20.975098683730874  53.005892530951215  7.661524962020499  -6.492856772659399  25.342204182376424  51.3163822317387  -22.256784402269012  18.318390666358393  0.000000
2.139  0.000000  0.000000  0.000000  -32.47950354694562  5.382222196328068  20.205889456537832  53.1441972428956  7.291336317165995  -6.763431484478009  25.623724784057185  50.41119887038118  -22.427678091116626  18.437016106175317  0.000000
2.17  0.000000  0.000000  0.000000  -32.2113781446611  4.941882553685545  19.37083522976417  53.270604975275354  6.924166573162791  -6.994145099093661  25.892490435201445  49.47812625149219  -22.548625984653246  18.564251439981305  0.000000
2.201  0.000000  0.000000  0.000000  -31.96105217341357  4.482664380426097  18.483544885492567  53.379336461494056  6.567034836220844  -7.186522759141058  26.1471289073334  48.51933809094286  -22.626348292651937  18.693425863612124  0.000000
2.232  0.000000  0.000000  0.000000  -31.727657081792284  4.006627328642555  17.55411344736793  53.4649665589934  6.225559098022406  -7.344205412300297  26.383608830987058  47.538665977964186  -22.66363475733212  18.81798386426863  0.000000
2.263  0.000000  0.000000  0.000000  -31.510516020451732  3.5177349618081766  16.59297691863868  53.52307383914258  5.903741851649849  -7.469815768380584  26.598065415571075  46.53907351733452  -22.659672707007093  18.932987947310913  0.000000
2.294  0.000000  0.000000  0.000000  -31.30706278948342  3.021349848977757  15.609865028367276  53.55093600334773  5.605503697382059  -7.56544136439248  26.789971547040935  45.521018771781236  -22.612056794485742  19.03532526383141  0.000000
2.325  0.000000  0.000000  0.000000  -31.117392398214864  2.523837569951838  14.616884237870142  53.548326038170394  5.333781691194764  -7.632645395795145  26.96076626510499  44.4830085773731  -22.51685002283264  19.124089977722285  0.000000
2.356  0.000000  0.000000  0.000000  -30.93980342061167  2.031760507305283  13.625658540253124  53.516396809305775  5.0908048876498455  -7.673503117463071  27.11501009757968  43.42150900599436  -22.372248374529516  19.199353663408655  0.000000
2.387  0.000000  0.000000  0.000000  -30.774000969342254  1.5524938947012779  12.646671063922328  53.456833583301794  4.876310281483519  -7.68946958345876  27.256686766317973  42.33329326419931  -22.1787776813494  19.26266225752722  0.000000
2.418  0.000000  0.000000  0.000000  -30.618065537702773  1.0930033036177875  11.68655240592537  53.37120773755482  4.689195441993005  -7.6815724374766985  27.3903360188569  41.21463564511178  -21.941432800573388  19.317083162507085  0.000000
2.449  0.000000  0.000000  0.000000  -30.470673852516022  0.659335997197342  10.74910274362248  53.26100699297691  4.527534740462771  -7.650044314247751  27.517904770869144  40.0630848692964  -21.667277873590578  19.365880937129983  0.000000
2.48  0.000000  0.000000  0.000000  -30.32895918530218  0.2553363458886472  9.836739935535924  53.128202013448806  4.391736830037046  -7.5956475656099025  27.643179242956908  38.87480133948999  -21.367951842227644  19.411980679520738  0.000000
2.511  0.000000  0.000000  0.000000  -30.19316377307115  -0.11795595200792461  8.95263946414691  52.97780044075348  4.283399072954522  -7.520365398516527  27.770241196706  37.64776439745987  -21.05921048096849  19.456183679779322  0.000000
2.542  0.000000  0.000000  0.000000  -30.063834479619832  -0.4615746756073682  8.102175508568129  52.81594781722054  4.205590104068316  -7.427645293218941  27.90691165529989  36.37895941720417  -20.76041744247335  19.499270147749275  0.000000
2.573  0.000000  0.000000  0.000000  -29.943145338830565  -0.7763894415017512  7.291304973946536  52.649898086067715  4.158804257968164  -7.321594202059026  28.061177803920575  35.06867563763413  -20.48889588266246  19.54018921239055  0.000000
2.604  0.000000  0.000000  0.000000  -29.829985521620205  -1.0604523915200545  6.525329658544093  52.48257901436052  4.140995377227006  -7.204055303725318  28.242505435300412  33.71676539951719  -20.25483588792723  19.579892631838142  0.000000
2.635  0.000000  0.000000  0.000000  -29.721482853302902  -1.3082838725938977  5.805303756861487  52.3160156815152  4.147340668765917  -7.074638863859579  28.457052731436427  32.32691645627549  -20.057458763150176  19.61753221351485  0.000000
2.666  0.000000  0.000000  0.000000  -29.61209185057248  -1.5146530831959173  5.1307829413810415  52.14774870267075  4.1721554092908  -6.930919118901344  28.70747866667982  30.903178496682596  -19.887041804243736  19.655601987246648  0.000000
2.697  0.000000  0.000000  0.000000  -29.499622262072023  -1.6777941966808692  4.497848683871495  51.979254885300456  4.210928555430166  -6.772599317733699  28.993422081381375  29.455882582474455  -19.73074337266797  19.693218027566555  0.000000
2.7279999999999998  0.000000  0.000000  0.000000  -29.384812322207473  -1.80108157957503  3.903751603218073  51.808249431256726  4.2596792835750845  -6.601241035497657  29.312877779596644  27.997666427134472  -19.578559655732466  19.735404572217973  0.000000
2.759  0.000000  0.000000  0.000000  -29.274313667310025  -1.8919588477695939  3.3442635033221313  51.63979816799633  4.31747727212156  -6.422056927706742  29.66223012437904  26.54629654588652  -19.420424895490868  19.78264787024942  0.000000
2.79  0.000000  0.000000  0.000000  -29.17135752834413  -1.9575984978154573  2.8195612044076928  51.47126038182139  4.3826237258242475  -6.240371422124923  30.034004326765622  25.115216836082308  -19.247901304301347  19.84361194901559  0.000000
